<svg width="86" height="86" viewBox="0 0 86 86" fill="none" xmlns="http://www.w3.org/2000/svg">
<path fill-rule="evenodd" clip-rule="evenodd" d="M86 43C86 66.7482 66.7482 86 43 86C19.2518 86 0 66.7482 0 43C0 19.2518 19.2518 0 43 0C66.7482 0 86 19.2518 86 43ZM37 16C37 13.2386 39.2386 11 42 11C44.7614 11 47 13.2386 47 16V38H69C71.7614 38 74 40.2386 74 43C74 45.7614 71.7614 48 69 48H47V69C47 71.7614 44.7614 74 42 74C39.2386 74 37 71.7614 37 69V48H16C13.2386 48 11 45.7614 11 43C11 40.2386 13.2386 38 16 38H37V16Z" fill="#33A1C4"/>
</svg>
