<svg width="18" height="23" viewBox="0 0 18 23" fill="none" xmlns="http://www.w3.org/2000/svg">
<path d="M8 15H13M6 17H15.5M7.64645 9.64645V9.64645C7.55268 9.55268 7.4255 9.5 7.29289 9.5H6.5C5.94772 9.5 5.5 9.05228 5.5 8.5V8.5C5.5 7.94772 5.94772 7.5 6.5 7.5H7.29289C7.4255 7.5 7.55268 7.44732 7.64645 7.35355V7.35355C7.84171 7.15829 7.84171 6.84171 7.64645 6.64645L7 6C6.72386 5.72386 6.72386 5.27614 7 5V5C7.27614 4.72386 7.72386 4.72386 8 5L8.64645 5.64645C8.84171 5.84171 9.15829 5.84171 9.35355 5.64645V5.64645C9.44732 5.55268 9.5 5.4255 9.5 5.29289V5C9.5 4.44772 9.94772 4 10.5 4V4C11.0523 4 11.5 4.44772 11.5 5V5.29289C11.5 5.4255 11.5527 5.55268 11.6464 5.64645V5.64645C11.8417 5.84171 12.1583 5.84171 12.3536 5.64645L13 5C13.2761 4.72386 13.7239 4.72386 14 5V5C14.2761 5.27614 14.2761 5.72386 14 6L13.3536 6.64645C13.1583 6.84171 13.1583 7.15829 13.3536 7.35355V7.35355C13.4473 7.44732 13.5745 7.5 13.7071 7.5H14.5C15.0523 7.5 15.5 7.94772 15.5 8.5V8.5C15.5 9.05228 15.0523 9.5 14.5 9.5H14.2373C14.0854 9.5 13.9396 9.56037 13.8322 9.66783V9.66783C13.639 9.86097 13.6091 10.1636 13.7606 10.3909L14.1466 10.9699C14.3521 11.2781 14.3115 11.6885 14.0495 11.9505V11.9505C13.746 12.254 13.254 12.254 12.9505 11.9505L12.9189 11.9189C12.6687 11.6687 12.282 11.609 11.9656 11.7672V11.7672C11.6827 11.9087 11.5 12.1998 11.5 12.5161V12.75C11.5 13.1642 11.1642 13.5 10.75 13.5V13.5C10.3358 13.5 10 13.1642 10 12.75V12.5729C10 12.2218 9.79993 11.9 9.48586 11.7429V11.7429C9.1864 11.5932 8.82808 11.6146 8.54951 11.8003L8.03009 12.1466C7.72187 12.3521 7.31145 12.3115 7.04951 12.0495V12.0495C6.74602 11.746 6.74602 11.254 7.04951 10.9505L7.64645 10.3536C7.84171 10.1583 7.84171 9.84171 7.64645 9.64645Z" stroke="#33A1C4" stroke-width="0.5" stroke-linecap="round" stroke-linejoin="round"/>
<path d="M4 1.5V18.5M4 18.5H15.25C16.2165 18.5 17 19.2835 17 20.25V20.25M4 18.5H2.5M0.5 20V3.10555C0.5 2.7107 0.616876 2.32469 0.835899 1.99615L0.9453 1.83205C1.29185 1.31223 1.87526 1 2.5 1V1M0.5 20L2.5 18.5M0.5 20L0.854854 20.7097C0.950989 20.902 1.07749 21.0775 1.22949 21.2295L1.41421 21.4142C1.78929 21.7893 2.29799 22 2.82843 22H15.25C16.2165 22 17 21.2165 17 20.25V20.25M17 20.25V2.30902C17 2.1058 16.9527 1.90537 16.8618 1.72361V1.72361C16.6401 1.28013 16.1868 1 15.691 1H2.5M17 20.25H3M2.5 1V18.5" stroke="#33A1C4" stroke-width="0.5" stroke-linecap="round" stroke-linejoin="round"/>
<circle cx="10.5" cy="8.5" r="2.25" stroke="#33A1C4" stroke-width="0.5"/>
</svg>
