<svg width="535" height="316" viewBox="0 0 535 316" fill="none" xmlns="http://www.w3.org/2000/svg">
<g filter="url(#filter0_d_204_3)">
<rect x="4" width="189" height="68" fill="#F5F5F5"/>
</g>
<path d="M85.04 46.33C83.66 46.33 82.48 45.95 81.5 45.19C80.52 44.43 79.77 43.39 79.25 42.07C78.75 40.75 78.5 39.25 78.5 37.57C78.5 35.69 78.94 33.91 79.82 32.23C80.7 30.53 81.85 29.17 83.27 28.15C84.71 27.11 86.2 26.59 87.74 26.59C89.04 26.59 90.04 26.88 90.74 27.46C91.44 28.04 91.79 28.72 91.79 29.5C91.79 29.96 91.65 30.38 91.37 30.76C91.11 31.14 90.73 31.43 90.23 31.63C90.17 31.51 90.14 31.32 90.14 31.06C90.14 30.82 90.17 30.58 90.23 30.34C90.27 30.02 90.29 29.79 90.29 29.65C90.29 29.45 90.26 29.28 90.2 29.14C89.92 28.44 89.16 28.09 87.92 28.09C87.58 28.09 87.18 28.12 86.72 28.18C85.66 28.32 84.61 28.85 83.57 29.77C82.53 30.67 81.68 31.8 81.02 33.16C80.36 34.52 80.03 35.91 80.03 37.33C80.03 38.57 80.23 39.75 80.63 40.87C81.05 41.97 81.65 42.86 82.43 43.54C83.21 44.22 84.14 44.56 85.22 44.56C86.62 44.56 87.78 44.39 88.7 44.05C89.64 43.71 90.56 43.19 91.46 42.49C91.56 42.41 91.67 42.37 91.79 42.37C92.01 42.37 92.16 42.5 92.24 42.76C92.34 43.24 92.02 43.76 91.28 44.32C90.54 44.88 89.58 45.36 88.4 45.76C87.22 46.14 86.1 46.33 85.04 46.33ZM97.3048 46C96.4848 44.4 95.8348 42.52 95.3548 40.36C94.8948 38.2 94.6648 36.33 94.6648 34.75C94.6648 34.13 94.8048 33.73 95.0848 33.55C95.2448 33.45 95.3648 33.4 95.4448 33.4C95.5848 33.4 95.6848 33.51 95.7448 33.73C95.8248 33.95 95.9048 34.35 95.9848 34.93L96.1348 36.01C96.3548 34.93 96.7748 34.08 97.3948 33.46C98.0348 32.82 98.8148 32.5 99.7348 32.5C100.755 32.5 101.515 32.7 102.015 33.1C102.515 33.48 102.765 34.12 102.765 35.02C101.765 34.54 100.855 34.3 100.035 34.3C99.2548 34.3 98.5848 34.51 98.0248 34.93C97.4648 35.35 97.0748 35.97 96.8548 36.79C96.6748 37.35 96.5848 37.88 96.5848 38.38C96.5848 38.92 96.6548 39.43 96.7948 39.91C96.9548 40.37 97.1948 40.94 97.5148 41.62C97.8148 42.32 98.0448 42.92 98.2048 43.42C98.3848 43.92 98.4848 44.46 98.5048 45.04C98.5048 45.38 98.3848 45.63 98.1448 45.79C97.9048 45.93 97.6248 46 97.3048 46ZM105.962 46.03C105.502 46.03 105.132 45.36 104.852 44.02C104.572 42.66 104.392 41.49 104.312 40.51C104.232 39.53 104.122 37.98 103.982 35.86C103.962 35.52 103.952 35.08 103.952 34.54C103.952 33.86 104.002 33.39 104.102 33.13C104.222 32.87 104.412 32.74 104.672 32.74C104.892 32.74 105.062 32.79 105.182 32.89C105.322 32.97 105.442 33.11 105.542 33.31L105.512 34.51C105.512 35.79 105.572 37 105.692 38.14C105.832 39.28 106.042 40.81 106.322 42.73C106.482 43.57 106.592 44.26 106.652 44.8C106.692 45.08 106.642 45.36 106.502 45.64C106.362 45.9 106.182 46.03 105.962 46.03ZM105.212 29.53C104.772 29.53 104.442 29.36 104.222 29.02C104.022 28.68 103.922 28.26 103.922 27.76C103.922 27.54 103.932 27.38 103.952 27.28C103.932 26.96 104.112 26.8 104.492 26.8C104.772 26.8 105.052 26.87 105.332 27.01C105.632 27.13 105.722 27.22 105.602 27.28C105.802 27.8 105.902 28.21 105.902 28.51C105.902 28.77 105.842 28.98 105.722 29.14C105.602 29.28 105.432 29.41 105.212 29.53ZM116.423 46C115.143 46 113.963 45.75 112.883 45.25C111.803 44.75 110.943 44.04 110.303 43.12C109.663 42.2 109.343 41.14 109.343 39.94C109.343 38.6 109.593 37.35 110.093 36.19C110.593 35.01 111.323 34.07 112.283 33.37C113.263 32.65 114.403 32.29 115.703 32.29C117.063 32.29 118.093 32.73 118.793 33.61C119.493 34.47 119.823 35.56 119.783 36.88C119.783 38.06 119.313 38.96 118.373 39.58C117.453 40.2 116.273 40.51 114.833 40.51C114.613 40.51 114.283 40.49 113.843 40.45C113.123 40.37 112.613 40.26 112.313 40.12C112.013 39.98 111.863 39.7 111.863 39.28C111.863 39.14 111.903 39.04 111.983 38.98C112.063 38.9 112.223 38.86 112.463 38.86C112.723 38.86 113.183 38.92 113.843 39.04C114.483 39.16 115.053 39.22 115.553 39.22C117.393 39.22 118.313 38.42 118.313 36.82C118.313 35.86 118.133 35.1 117.773 34.54C117.433 33.98 116.823 33.7 115.943 33.7C114.983 33.7 114.123 33.96 113.363 34.48C112.603 34.98 112.013 35.64 111.593 36.46C111.193 37.28 110.993 38.15 110.993 39.07C110.993 40.65 111.433 41.95 112.313 42.97C113.193 43.97 114.553 44.47 116.393 44.47C116.613 44.47 116.983 44.45 117.503 44.41C117.723 44.39 117.993 44.33 118.313 44.23C118.633 44.13 118.863 44.06 119.003 44.02C119.863 43.72 120.493 43.57 120.893 43.57C121.193 43.57 121.423 43.65 121.583 43.81C121.083 44.57 120.333 45.13 119.333 45.49C118.353 45.83 117.383 46 116.423 46Z" fill="#33A1C4"/>
<g filter="url(#filter1_d_204_3)">
<rect x="172" y="82" width="189" height="68" fill="#F5F5F5"/>
</g>
<path d="M203.321 122.8C202.941 121.28 202.651 119.75 202.451 118.21C202.251 116.65 202.071 114.09 201.911 110.53C201.911 110.29 201.991 110.08 202.151 109.9C202.331 109.72 202.531 109.63 202.751 109.63H203.021C203.121 110.29 203.191 111.35 203.231 112.81C203.231 112.97 203.251 113.51 203.291 114.43C203.331 115.33 203.431 116.18 203.591 116.98C205.911 116.76 207.761 116.31 209.141 115.63C210.541 114.95 211.241 113.98 211.241 112.72C211.241 111.14 210.541 109.85 209.141 108.85C207.741 107.85 205.631 107.35 202.811 107.35C201.631 107.35 200.631 107.57 199.811 108.01C199.671 108.07 199.571 108.2 199.511 108.4C199.451 108.58 199.401 108.84 199.361 109.18C199.321 109.54 199.271 109.81 199.211 109.99C199.151 110.17 199.041 110.26 198.881 110.26C198.701 110.26 198.581 110.13 198.521 109.87C198.481 109.59 198.461 108.96 198.461 107.98C198.461 107.42 198.841 106.98 199.601 106.66C200.361 106.34 201.341 106.18 202.541 106.18C206.041 106.18 208.641 106.73 210.341 107.83C212.041 108.93 212.891 110.62 212.891 112.9C212.891 114.12 212.401 115.14 211.421 115.96C210.441 116.78 209.251 117.39 207.851 117.79C206.451 118.17 205.111 118.36 203.831 118.36C203.871 118.6 203.911 118.82 203.951 119.02C203.991 119.22 204.021 119.39 204.041 119.53C204.321 120.89 204.461 121.94 204.461 122.68C204.461 123.12 204.401 123.47 204.281 123.73C204.181 123.99 203.951 124.08 203.591 124L203.321 122.8ZM221.698 124C220.418 124 219.238 123.75 218.158 123.25C217.078 122.75 216.218 122.04 215.578 121.12C214.938 120.2 214.618 119.14 214.618 117.94C214.618 116.6 214.868 115.35 215.368 114.19C215.868 113.01 216.598 112.07 217.558 111.37C218.538 110.65 219.678 110.29 220.978 110.29C222.338 110.29 223.368 110.73 224.068 111.61C224.768 112.47 225.098 113.56 225.058 114.88C225.058 116.06 224.588 116.96 223.648 117.58C222.728 118.2 221.548 118.51 220.108 118.51C219.888 118.51 219.558 118.49 219.118 118.45C218.398 118.37 217.888 118.26 217.588 118.12C217.288 117.98 217.138 117.7 217.138 117.28C217.138 117.14 217.178 117.04 217.258 116.98C217.338 116.9 217.498 116.86 217.738 116.86C217.998 116.86 218.458 116.92 219.118 117.04C219.758 117.16 220.328 117.22 220.828 117.22C222.668 117.22 223.588 116.42 223.588 114.82C223.588 113.86 223.408 113.1 223.048 112.54C222.708 111.98 222.098 111.7 221.218 111.7C220.258 111.7 219.398 111.96 218.638 112.48C217.878 112.98 217.288 113.64 216.868 114.46C216.468 115.28 216.268 116.15 216.268 117.07C216.268 118.65 216.708 119.95 217.588 120.97C218.468 121.97 219.828 122.47 221.668 122.47C221.888 122.47 222.258 122.45 222.778 122.41C222.998 122.39 223.268 122.33 223.588 122.23C223.908 122.13 224.138 122.06 224.278 122.02C225.138 121.72 225.768 121.57 226.168 121.57C226.468 121.57 226.698 121.65 226.858 121.81C226.358 122.57 225.608 123.13 224.608 123.49C223.628 123.83 222.658 124 221.698 124ZM230.705 124C229.885 122.4 229.235 120.52 228.755 118.36C228.295 116.2 228.065 114.33 228.065 112.75C228.065 112.13 228.205 111.73 228.485 111.55C228.645 111.45 228.765 111.4 228.845 111.4C228.985 111.4 229.085 111.51 229.145 111.73C229.225 111.95 229.305 112.35 229.385 112.93L229.535 114.01C229.755 112.93 230.175 112.08 230.795 111.46C231.435 110.82 232.215 110.5 233.135 110.5C234.155 110.5 234.915 110.7 235.415 111.1C235.915 111.48 236.165 112.12 236.165 113.02C235.165 112.54 234.255 112.3 233.435 112.3C232.655 112.3 231.985 112.51 231.425 112.93C230.865 113.35 230.475 113.97 230.255 114.79C230.075 115.35 229.985 115.88 229.985 116.38C229.985 116.92 230.055 117.43 230.195 117.91C230.355 118.37 230.595 118.94 230.915 119.62C231.215 120.32 231.445 120.92 231.605 121.42C231.785 121.92 231.885 122.46 231.905 123.04C231.905 123.38 231.785 123.63 231.545 123.79C231.305 123.93 231.025 124 230.705 124ZM237.502 120.46C237.782 120.24 238.052 120.13 238.312 120.13C238.552 120.13 238.782 120.2 239.002 120.34C239.242 120.48 239.482 120.66 239.722 120.88C239.962 121.08 240.152 121.23 240.292 121.33C240.752 121.69 241.382 121.97 242.182 122.17C242.982 122.37 243.832 122.47 244.732 122.47C245.752 122.47 246.662 122.28 247.462 121.9C248.282 121.5 248.692 120.97 248.692 120.31C248.692 119.71 248.472 119.24 248.032 118.9C247.592 118.54 247.062 118.28 246.442 118.12C245.822 117.96 245.002 117.81 243.982 117.67C242.602 117.51 241.502 117.31 240.682 117.07C239.882 116.83 239.242 116.44 238.762 115.9C238.282 115.34 238.042 114.56 238.042 113.56C238.042 112.48 238.552 111.68 239.572 111.16C240.592 110.62 241.762 110.35 243.082 110.35C244.282 110.35 245.302 110.61 246.142 111.13C247.002 111.63 247.442 112.35 247.462 113.29C247.502 113.83 247.422 114.26 247.222 114.58C247.022 114.88 246.782 115.03 246.502 115.03C246.342 115.03 246.202 114.97 246.082 114.85C245.982 114.73 245.932 114.57 245.932 114.37C245.932 114.05 246.042 113.7 246.262 113.32C246.162 112.84 245.832 112.48 245.272 112.24C244.732 112 244.082 111.88 243.322 111.88C242.202 111.88 241.312 112.09 240.652 112.51C239.992 112.91 239.662 113.39 239.662 113.95C239.662 114.55 239.902 115.01 240.382 115.33C240.862 115.65 241.442 115.88 242.122 116.02C242.822 116.14 243.812 116.26 245.092 116.38C246.152 116.52 247.012 116.69 247.672 116.89C248.352 117.09 248.922 117.48 249.382 118.06C249.842 118.62 250.072 119.43 250.072 120.49C250.072 121.59 249.562 122.46 248.542 123.1C247.522 123.72 246.302 124.03 244.882 124.03C243.062 124.03 241.432 123.72 239.992 123.1C238.572 122.48 237.742 121.6 237.502 120.46ZM258.826 124.03C257.646 124.03 256.576 123.77 255.616 123.25C254.676 122.71 253.936 121.97 253.396 121.03C252.876 120.07 252.616 118.98 252.616 117.76C252.616 115.76 253.346 114.27 254.806 113.29C256.286 112.31 258.096 111.82 260.236 111.82C261.216 111.82 262.126 112.06 262.966 112.54C263.826 113.02 264.516 113.71 265.036 114.61C265.556 115.51 265.816 116.55 265.816 117.73C265.816 119.01 265.486 120.13 264.826 121.09C264.166 122.03 263.296 122.76 262.216 123.28C261.156 123.78 260.026 124.03 258.826 124.03ZM258.496 122.32C260.356 122.32 261.766 121.9 262.726 121.06C263.686 120.22 264.166 118.99 264.166 117.37C264.166 116.27 263.786 115.32 263.026 114.52C262.286 113.72 261.246 113.32 259.906 113.32C259.006 113.32 258.096 113.49 257.176 113.83C256.256 114.17 255.496 114.68 254.896 115.36C254.296 116.04 253.996 116.86 253.996 117.82C253.996 118.62 254.196 119.37 254.596 120.07C254.996 120.75 255.536 121.3 256.216 121.72C256.916 122.12 257.676 122.32 258.496 122.32ZM271.052 124.12C270.772 124.2 270.612 124.24 270.572 124.24C270.412 124.24 270.242 124.16 270.062 124C269.402 123.02 268.922 121.31 268.622 118.87C268.342 116.43 268.202 114.33 268.202 112.57C268.202 112.29 268.402 112.15 268.802 112.15C269.402 112.15 269.702 112.48 269.702 113.14C269.702 113.32 269.692 113.47 269.672 113.59C269.852 113.17 270.192 112.74 270.692 112.3C271.192 111.86 271.772 111.49 272.432 111.19C273.092 110.89 273.762 110.74 274.442 110.74C276.582 110.74 278.142 111.69 279.122 113.59C280.102 115.47 280.592 117.81 280.592 120.61C280.592 121.57 280.492 122.34 280.292 122.92C280.092 123.48 279.822 123.76 279.482 123.76C279.122 123.76 278.942 123.65 278.942 123.43C279.082 122.37 279.152 121.33 279.152 120.31C279.152 117.73 278.702 115.78 277.802 114.46C276.902 113.12 275.712 112.45 274.232 112.45C273.512 112.45 272.812 112.63 272.132 112.99C271.472 113.35 270.932 113.85 270.512 114.49C270.112 115.13 269.912 115.86 269.912 116.68C269.912 117.6 269.962 118.4 270.062 119.08C270.162 119.76 270.322 120.58 270.542 121.54C270.782 122.48 270.952 123.34 271.052 124.12ZM290.707 124C288.627 124 286.817 123.64 285.277 122.92C283.757 122.18 282.997 120.89 282.997 119.05C282.997 118.39 283.197 117.75 283.597 117.13C283.997 116.51 284.587 116.01 285.367 115.63C286.147 115.23 287.097 115.03 288.217 115.03C289.077 115.03 289.807 115.07 290.407 115.15C291.007 115.23 291.697 115.45 292.477 115.81C293.257 116.17 294.067 116.74 294.907 117.52C294.587 116.14 294.107 114.93 293.467 113.89C292.827 112.85 292.107 112.05 291.307 111.49C290.527 110.91 289.757 110.62 288.997 110.62C288.637 110.62 288.297 110.69 287.977 110.83C287.677 110.95 287.307 111.13 286.867 111.37C286.367 111.69 285.997 111.85 285.757 111.85C285.657 111.85 285.567 111.82 285.487 111.76C285.427 111.68 285.397 111.59 285.397 111.49C285.397 110.69 285.747 110.07 286.447 109.63C287.167 109.19 288.037 108.99 289.057 109.03C290.457 109.11 291.737 109.71 292.897 110.83C294.057 111.93 294.967 113.3 295.627 114.94C296.307 116.58 296.647 118.19 296.647 119.77C296.647 120.03 296.627 120.4 296.587 120.88L295.627 120.82C294.867 119.28 293.887 118.19 292.687 117.55C291.507 116.89 290.317 116.56 289.117 116.56C287.577 116.56 286.477 116.79 285.817 117.25C285.157 117.71 284.827 118.38 284.827 119.26C284.827 120.18 285.287 120.92 286.207 121.48C287.127 122.04 288.307 122.32 289.747 122.32C290.547 122.32 291.187 122.28 291.667 122.2C292.147 122.1 292.647 121.97 293.167 121.81C293.587 121.67 293.957 121.57 294.277 121.51C294.597 121.45 295.007 121.42 295.507 121.42C296.067 121.42 296.417 121.46 296.557 121.54C296.717 121.62 296.797 121.8 296.797 122.08C296.797 122.28 296.387 122.53 295.567 122.83C294.747 123.13 293.827 123.4 292.807 123.64C291.787 123.88 291.087 124 290.707 124ZM300.848 123.79C300.408 121.61 300.068 119.03 299.828 116.05C299.608 113.05 299.498 110.15 299.498 107.35C299.498 105.95 299.528 104.71 299.588 103.63C299.588 103.37 299.788 103.24 300.188 103.24C300.508 103.24 300.708 103.32 300.788 103.48C300.888 103.64 300.938 103.89 300.938 104.23C300.938 107.47 300.998 110.24 301.118 112.54C301.238 114.82 301.398 117.28 301.598 119.92C301.718 121.62 301.798 122.77 301.838 123.37C301.858 123.69 301.688 123.85 301.328 123.85C301.208 123.85 301.048 123.83 300.848 123.79ZM306.247 124.03C305.787 124.03 305.417 123.36 305.137 122.02C304.857 120.66 304.677 119.49 304.597 118.51C304.517 117.53 304.407 115.98 304.267 113.86C304.247 113.52 304.237 113.08 304.237 112.54C304.237 111.86 304.287 111.39 304.387 111.13C304.507 110.87 304.697 110.74 304.957 110.74C305.177 110.74 305.347 110.79 305.467 110.89C305.607 110.97 305.727 111.11 305.827 111.31L305.797 112.51C305.797 113.79 305.857 115 305.977 116.14C306.117 117.28 306.327 118.81 306.607 120.73C306.767 121.57 306.877 122.26 306.937 122.8C306.977 123.08 306.927 123.36 306.787 123.64C306.647 123.9 306.467 124.03 306.247 124.03ZM305.497 107.53C305.057 107.53 304.727 107.36 304.507 107.02C304.307 106.68 304.207 106.26 304.207 105.76C304.207 105.54 304.217 105.38 304.237 105.28C304.217 104.96 304.397 104.8 304.777 104.8C305.057 104.8 305.337 104.87 305.617 105.01C305.917 105.13 306.007 105.22 305.887 105.28C306.087 105.8 306.187 106.21 306.187 106.51C306.187 106.77 306.127 106.98 306.007 107.14C305.887 107.28 305.717 107.41 305.497 107.53ZM309.778 120.46C310.058 120.24 310.328 120.13 310.588 120.13C310.828 120.13 311.058 120.2 311.278 120.34C311.518 120.48 311.758 120.66 311.998 120.88C312.238 121.08 312.428 121.23 312.568 121.33C313.028 121.69 313.658 121.97 314.458 122.17C315.258 122.37 316.108 122.47 317.008 122.47C318.028 122.47 318.938 122.28 319.738 121.9C320.558 121.5 320.968 120.97 320.968 120.31C320.968 119.71 320.748 119.24 320.308 118.9C319.868 118.54 319.338 118.28 318.718 118.12C318.098 117.96 317.278 117.81 316.258 117.67C314.878 117.51 313.778 117.31 312.958 117.07C312.158 116.83 311.518 116.44 311.038 115.9C310.558 115.34 310.318 114.56 310.318 113.56C310.318 112.48 310.828 111.68 311.848 111.16C312.868 110.62 314.038 110.35 315.358 110.35C316.558 110.35 317.578 110.61 318.418 111.13C319.278 111.63 319.718 112.35 319.738 113.29C319.778 113.83 319.698 114.26 319.498 114.58C319.298 114.88 319.058 115.03 318.778 115.03C318.618 115.03 318.478 114.97 318.358 114.85C318.258 114.73 318.208 114.57 318.208 114.37C318.208 114.05 318.318 113.7 318.538 113.32C318.438 112.84 318.108 112.48 317.548 112.24C317.008 112 316.358 111.88 315.598 111.88C314.478 111.88 313.588 112.09 312.928 112.51C312.268 112.91 311.938 113.39 311.938 113.95C311.938 114.55 312.178 115.01 312.658 115.33C313.138 115.65 313.718 115.88 314.398 116.02C315.098 116.14 316.088 116.26 317.368 116.38C318.428 116.52 319.288 116.69 319.948 116.89C320.628 117.09 321.198 117.48 321.658 118.06C322.118 118.62 322.348 119.43 322.348 120.49C322.348 121.59 321.838 122.46 320.818 123.1C319.798 123.72 318.578 124.03 317.158 124.03C315.338 124.03 313.708 123.72 312.268 123.1C310.848 122.48 310.018 121.6 309.778 120.46ZM331.971 124C330.691 124 329.511 123.75 328.431 123.25C327.351 122.75 326.491 122.04 325.851 121.12C325.211 120.2 324.891 119.14 324.891 117.94C324.891 116.6 325.141 115.35 325.641 114.19C326.141 113.01 326.871 112.07 327.831 111.37C328.811 110.65 329.951 110.29 331.251 110.29C332.611 110.29 333.641 110.73 334.341 111.61C335.041 112.47 335.371 113.56 335.331 114.88C335.331 116.06 334.861 116.96 333.921 117.58C333.001 118.2 331.821 118.51 330.381 118.51C330.161 118.51 329.831 118.49 329.391 118.45C328.671 118.37 328.161 118.26 327.861 118.12C327.561 117.98 327.411 117.7 327.411 117.28C327.411 117.14 327.451 117.04 327.531 116.98C327.611 116.9 327.771 116.86 328.011 116.86C328.271 116.86 328.731 116.92 329.391 117.04C330.031 117.16 330.601 117.22 331.101 117.22C332.941 117.22 333.861 116.42 333.861 114.82C333.861 113.86 333.681 113.1 333.321 112.54C332.981 111.98 332.371 111.7 331.491 111.7C330.531 111.7 329.671 111.96 328.911 112.48C328.151 112.98 327.561 113.64 327.141 114.46C326.741 115.28 326.541 116.15 326.541 117.07C326.541 118.65 326.981 119.95 327.861 120.97C328.741 121.97 330.101 122.47 331.941 122.47C332.161 122.47 332.531 122.45 333.051 122.41C333.271 122.39 333.541 122.33 333.861 122.23C334.181 122.13 334.411 122.06 334.551 122.02C335.411 121.72 336.041 121.57 336.441 121.57C336.741 121.57 336.971 121.65 337.131 121.81C336.631 122.57 335.881 123.13 334.881 123.49C333.901 123.83 332.931 124 331.971 124Z" fill="#33A1C4"/>
<g filter="url(#filter2_d_204_3)">
<rect x="339" y="162" width="189" height="68" fill="#F5F5F5"/>
</g>
<path d="M418.247 204.03C415.887 204.03 414.207 202.97 413.207 200.85C412.227 198.73 411.657 195.97 411.497 192.57C411.477 192.27 411.467 191.84 411.467 191.28C411.467 190.14 411.607 189.26 411.887 188.64C412.187 188 412.737 187.68 413.537 187.68C413.757 187.68 413.927 187.74 414.047 187.86C414.167 187.96 414.227 188.1 414.227 188.28C414.227 188.66 413.997 189.03 413.537 189.39C413.277 189.39 413.097 189.56 412.997 189.9C412.917 190.24 412.877 190.76 412.877 191.46C412.877 192.1 412.887 192.61 412.907 192.99C413.027 195.97 413.577 198.33 414.557 200.07C415.537 201.79 416.897 202.65 418.637 202.65C419.637 202.65 420.537 202.41 421.337 201.93C422.137 201.45 422.757 200.81 423.197 200.01C423.657 199.19 423.887 198.31 423.887 197.37C423.687 195.73 423.527 194.58 423.407 193.92C423.287 193.26 423.067 192.19 422.747 190.71C422.607 190.13 422.537 189.62 422.537 189.18C422.537 188.72 422.627 188.4 422.807 188.22C422.987 188.04 423.257 187.95 423.617 187.95C423.837 187.95 424.007 188.08 424.127 188.34C424.247 188.6 424.357 189.11 424.457 189.87C424.557 190.63 424.687 191.87 424.847 193.59C424.947 194.57 425.137 195.53 425.417 196.47C425.717 197.41 426.107 198.49 426.587 199.71C426.627 199.83 426.737 200.13 426.917 200.61C427.097 201.07 427.227 201.45 427.307 201.75C427.387 202.05 427.427 202.29 427.427 202.47C427.427 202.93 427.187 203.16 426.707 203.16C426.547 203.16 425.957 201.93 424.937 199.47C424.717 200.37 424.267 201.17 423.587 201.87C422.907 202.55 422.097 203.08 421.157 203.46C420.217 203.84 419.247 204.03 418.247 204.03ZM429.972 200.46C430.252 200.24 430.522 200.13 430.782 200.13C431.022 200.13 431.252 200.2 431.472 200.34C431.712 200.48 431.952 200.66 432.192 200.88C432.432 201.08 432.622 201.23 432.762 201.33C433.222 201.69 433.852 201.97 434.652 202.17C435.452 202.37 436.302 202.47 437.202 202.47C438.222 202.47 439.132 202.28 439.932 201.9C440.752 201.5 441.162 200.97 441.162 200.31C441.162 199.71 440.942 199.24 440.502 198.9C440.062 198.54 439.532 198.28 438.912 198.12C438.292 197.96 437.472 197.81 436.452 197.67C435.072 197.51 433.972 197.31 433.152 197.07C432.352 196.83 431.712 196.44 431.232 195.9C430.752 195.34 430.512 194.56 430.512 193.56C430.512 192.48 431.022 191.68 432.042 191.16C433.062 190.62 434.232 190.35 435.552 190.35C436.752 190.35 437.772 190.61 438.612 191.13C439.472 191.63 439.912 192.35 439.932 193.29C439.972 193.83 439.892 194.26 439.692 194.58C439.492 194.88 439.252 195.03 438.972 195.03C438.812 195.03 438.672 194.97 438.552 194.85C438.452 194.73 438.402 194.57 438.402 194.37C438.402 194.05 438.512 193.7 438.732 193.32C438.632 192.84 438.302 192.48 437.742 192.24C437.202 192 436.552 191.88 435.792 191.88C434.672 191.88 433.782 192.09 433.122 192.51C432.462 192.91 432.132 193.39 432.132 193.95C432.132 194.55 432.372 195.01 432.852 195.33C433.332 195.65 433.912 195.88 434.592 196.02C435.292 196.14 436.282 196.26 437.562 196.38C438.622 196.52 439.482 196.69 440.142 196.89C440.822 197.09 441.392 197.48 441.852 198.06C442.312 198.62 442.542 199.43 442.542 200.49C442.542 201.59 442.032 202.46 441.012 203.1C439.992 203.72 438.772 204.03 437.352 204.03C435.532 204.03 433.902 203.72 432.462 203.1C431.042 202.48 430.212 201.6 429.972 200.46ZM452.166 204C450.886 204 449.706 203.75 448.626 203.25C447.546 202.75 446.686 202.04 446.046 201.12C445.406 200.2 445.086 199.14 445.086 197.94C445.086 196.6 445.336 195.35 445.836 194.19C446.336 193.01 447.066 192.07 448.026 191.37C449.006 190.65 450.146 190.29 451.446 190.29C452.806 190.29 453.836 190.73 454.536 191.61C455.236 192.47 455.566 193.56 455.526 194.88C455.526 196.06 455.056 196.96 454.116 197.58C453.196 198.2 452.016 198.51 450.576 198.51C450.356 198.51 450.026 198.49 449.586 198.45C448.866 198.37 448.356 198.26 448.056 198.12C447.756 197.98 447.606 197.7 447.606 197.28C447.606 197.14 447.646 197.04 447.726 196.98C447.806 196.9 447.966 196.86 448.206 196.86C448.466 196.86 448.926 196.92 449.586 197.04C450.226 197.16 450.796 197.22 451.296 197.22C453.136 197.22 454.056 196.42 454.056 194.82C454.056 193.86 453.876 193.1 453.516 192.54C453.176 191.98 452.566 191.7 451.686 191.7C450.726 191.7 449.866 191.96 449.106 192.48C448.346 192.98 447.756 193.64 447.336 194.46C446.936 195.28 446.736 196.15 446.736 197.07C446.736 198.65 447.176 199.95 448.056 200.97C448.936 201.97 450.296 202.47 452.136 202.47C452.356 202.47 452.726 202.45 453.246 202.41C453.466 202.39 453.736 202.33 454.056 202.23C454.376 202.13 454.606 202.06 454.746 202.02C455.606 201.72 456.236 201.57 456.636 201.57C456.936 201.57 457.166 201.65 457.326 201.81C456.826 202.57 456.076 203.13 455.076 203.49C454.096 203.83 453.126 204 452.166 204Z" fill="#33A1C4"/>
<g filter="url(#filter3_d_204_3)">
<path d="M166.933 116H10V202H329" stroke="#737373" stroke-width="5" stroke-linejoin="round"/>
</g>
<g filter="url(#filter4_d_204_3)">
<rect x="4" y="240" width="188.875" height="67.9817" fill="#F5F5F5"/>
<path d="M31.9694 282.211C30.5894 282.211 29.4094 281.831 28.4294 281.071C27.4494 280.311 26.6994 279.271 26.1794 277.951C25.6794 276.631 25.4294 275.131 25.4294 273.451C25.4294 271.571 25.8694 269.791 26.7494 268.111C27.6294 266.411 28.7794 265.051 30.1994 264.031C31.6394 262.991 33.1294 262.471 34.6694 262.471C35.9694 262.471 36.9694 262.761 37.6694 263.341C38.3694 263.921 38.7194 264.601 38.7194 265.381C38.7194 265.841 38.5794 266.261 38.2994 266.641C38.0394 267.021 37.6594 267.311 37.1594 267.511C37.0994 267.391 37.0694 267.201 37.0694 266.941C37.0694 266.701 37.0994 266.461 37.1594 266.221C37.1994 265.901 37.2194 265.671 37.2194 265.531C37.2194 265.331 37.1894 265.161 37.1294 265.021C36.8494 264.321 36.0894 263.971 34.8494 263.971C34.5094 263.971 34.1094 264.001 33.6494 264.061C32.5894 264.201 31.5394 264.731 30.4994 265.651C29.4594 266.551 28.6094 267.681 27.9494 269.041C27.2894 270.401 26.9594 271.791 26.9594 273.211C26.9594 274.451 27.1594 275.631 27.5594 276.751C27.9794 277.851 28.5794 278.741 29.3594 279.421C30.1394 280.101 31.0694 280.441 32.1494 280.441C33.5494 280.441 34.7094 280.271 35.6294 279.931C36.5694 279.591 37.4894 279.071 38.3894 278.371C38.4894 278.291 38.5994 278.251 38.7194 278.251C38.9394 278.251 39.0894 278.381 39.1694 278.641C39.2694 279.121 38.9494 279.641 38.2094 280.201C37.4694 280.761 36.5094 281.241 35.3294 281.641C34.1494 282.021 33.0294 282.211 31.9694 282.211ZM47.8042 281.911C46.6242 281.911 45.5542 281.651 44.5942 281.131C43.6542 280.591 42.9142 279.851 42.3742 278.911C41.8542 277.951 41.5942 276.861 41.5942 275.641C41.5942 273.641 42.3242 272.151 43.7842 271.171C45.2642 270.191 47.0742 269.701 49.2142 269.701C50.1942 269.701 51.1042 269.941 51.9442 270.421C52.8042 270.901 53.4942 271.591 54.0142 272.491C54.5342 273.391 54.7942 274.431 54.7942 275.611C54.7942 276.891 54.4642 278.011 53.8042 278.971C53.1442 279.911 52.2742 280.641 51.1942 281.161C50.1342 281.661 49.0042 281.911 47.8042 281.911ZM47.4742 280.201C49.3342 280.201 50.7442 279.781 51.7042 278.941C52.6642 278.101 53.1442 276.871 53.1442 275.251C53.1442 274.151 52.7642 273.201 52.0042 272.401C51.2642 271.601 50.2242 271.201 48.8842 271.201C47.9842 271.201 47.0742 271.371 46.1542 271.711C45.2342 272.051 44.4742 272.561 43.8742 273.241C43.2742 273.921 42.9742 274.741 42.9742 275.701C42.9742 276.501 43.1742 277.251 43.5742 277.951C43.9742 278.631 44.5142 279.181 45.1942 279.601C45.8942 280.001 46.6542 280.201 47.4742 280.201ZM76.6502 281.911C76.3502 281.911 76.1702 281.831 76.1102 281.671C76.0502 281.491 76.0202 281.221 76.0202 280.861C76.0402 280.721 76.0502 280.561 76.0502 280.381C76.0502 280.181 76.0602 280.031 76.0802 279.931C76.2002 278.971 76.2602 278.061 76.2602 277.201C76.2602 275.301 75.9402 273.821 75.3002 272.761C74.6602 271.681 73.6502 271.141 72.2702 271.141C71.5102 271.141 70.7502 271.331 69.9902 271.711C69.2502 272.091 68.6402 272.561 68.1602 273.121C67.7002 273.681 67.4702 274.191 67.4702 274.651C67.5702 275.231 67.7502 275.941 68.0102 276.781C68.0302 276.881 68.1102 277.191 68.2502 277.711C68.4102 278.231 68.4902 278.701 68.4902 279.121L68.5202 279.691C68.5202 280.011 68.3602 280.171 68.0402 280.171C67.6402 280.171 67.3102 279.911 67.0502 279.391C66.8102 278.871 66.5402 278.061 66.2402 276.961C65.9402 275.881 65.6502 274.991 65.3702 274.291C65.0902 273.591 64.7102 272.991 64.2302 272.491C63.7502 271.991 63.1402 271.741 62.4002 271.741C61.3802 271.741 60.5802 272.091 60.0002 272.791C59.4402 273.491 59.1602 274.351 59.1602 275.371C59.1602 276.051 59.2202 276.951 59.3402 278.071C59.4402 278.911 59.4902 279.631 59.4902 280.231C59.4902 280.591 59.4502 280.861 59.3702 281.041C59.2902 281.221 59.1002 281.311 58.8002 281.311C58.4002 281.311 58.1202 281.181 57.9602 280.921C57.8002 280.641 57.7202 280.221 57.7202 279.661C57.7202 278.561 57.6602 277.231 57.5402 275.671C57.5202 275.471 57.4802 274.961 57.4202 274.141C57.3602 273.301 57.3502 272.461 57.3902 271.621L57.4202 270.631C57.5402 270.511 57.6802 270.451 57.8402 270.451C58.0602 270.451 58.2402 270.591 58.3802 270.871C58.5402 271.131 58.6202 271.531 58.6202 272.071C58.9202 271.551 59.3602 271.081 59.9402 270.661C60.5202 270.241 61.1302 270.031 61.7702 270.031C62.8702 270.031 63.7802 270.261 64.5002 270.721C65.2402 271.161 65.9102 271.881 66.5102 272.881C67.0702 271.861 67.9102 270.991 69.0302 270.271C70.1702 269.551 71.3402 269.191 72.5402 269.191C73.7802 269.191 74.8102 269.661 75.6302 270.601C76.4702 271.541 77.0802 272.671 77.4602 273.991C77.8602 275.311 78.0602 276.531 78.0602 277.651C78.0602 278.651 77.9702 279.611 77.7902 280.531C77.6302 281.451 77.2502 281.911 76.6502 281.911ZM84.0112 292.561C83.6112 292.561 83.1312 291.491 82.5712 289.351C82.0312 287.211 81.5412 284.831 81.1012 282.211C80.6812 279.611 80.4712 277.971 80.4712 277.291C80.4712 275.271 81.1512 273.801 82.5112 272.881C83.8712 271.941 85.6212 271.471 87.7612 271.471C88.9012 271.471 89.9812 271.711 91.0012 272.191C92.0212 272.651 92.8412 273.321 93.4612 274.201C94.0812 275.061 94.3912 276.061 94.3912 277.201C94.3912 278.621 93.8912 279.621 92.8912 280.201C91.9112 280.781 90.6712 281.071 89.1712 281.071C87.6112 281.071 86.2812 280.811 85.1812 280.291C84.1012 279.751 83.5612 279.021 83.5612 278.101L83.5912 277.801C83.7312 277.641 83.8812 277.561 84.0412 277.561C84.1812 277.561 84.3312 277.621 84.4912 277.741C84.6712 277.841 84.8612 277.961 85.0612 278.101C85.6812 278.561 86.2912 278.931 86.8912 279.211C87.5112 279.491 88.2812 279.631 89.2012 279.631C90.4612 279.631 91.3512 279.411 91.8712 278.971C92.4112 278.511 92.6812 277.791 92.6812 276.811C92.6812 276.091 92.4412 275.451 91.9612 274.891C91.4812 274.331 90.8612 273.901 90.1012 273.601C89.3412 273.301 88.5612 273.151 87.7612 273.151C85.9012 273.151 84.5012 273.551 83.5612 274.351C82.6212 275.131 82.2012 276.441 82.3012 278.281C82.4812 281.401 82.7612 284.021 83.1412 286.141C83.5412 288.261 84.2312 290.061 85.2112 291.541L85.2412 291.601C85.2412 291.641 85.1912 291.681 85.0912 291.721C85.0112 291.781 84.9512 291.831 84.9112 291.871C84.6712 292.251 84.3712 292.481 84.0112 292.561ZM104.5 281.881C102.42 281.881 100.61 281.521 99.0696 280.801C97.5496 280.061 96.7896 278.771 96.7896 276.931C96.7896 276.271 96.9896 275.631 97.3896 275.011C97.7896 274.391 98.3796 273.891 99.1596 273.511C99.9396 273.111 100.89 272.911 102.01 272.911C102.87 272.911 103.6 272.951 104.2 273.031C104.8 273.111 105.49 273.331 106.27 273.691C107.05 274.051 107.86 274.621 108.7 275.401C108.38 274.021 107.9 272.811 107.26 271.771C106.62 270.731 105.9 269.931 105.1 269.371C104.32 268.791 103.55 268.501 102.79 268.501C102.43 268.501 102.09 268.571 101.77 268.711C101.47 268.831 101.1 269.011 100.66 269.251C100.16 269.571 99.7896 269.731 99.5496 269.731C99.4496 269.731 99.3596 269.701 99.2796 269.641C99.2196 269.561 99.1896 269.471 99.1896 269.371C99.1896 268.571 99.5396 267.951 100.24 267.511C100.96 267.071 101.83 266.871 102.85 266.911C104.25 266.991 105.53 267.591 106.69 268.711C107.85 269.811 108.76 271.181 109.42 272.821C110.1 274.461 110.44 276.071 110.44 277.651C110.44 277.911 110.42 278.281 110.38 278.761L109.42 278.701C108.66 277.161 107.68 276.071 106.48 275.431C105.3 274.771 104.11 274.441 102.91 274.441C101.37 274.441 100.27 274.671 99.6096 275.131C98.9496 275.591 98.6196 276.261 98.6196 277.141C98.6196 278.061 99.0796 278.801 99.9996 279.361C100.92 279.921 102.1 280.201 103.54 280.201C104.34 280.201 104.98 280.161 105.46 280.081C105.94 279.981 106.44 279.851 106.96 279.691C107.38 279.551 107.75 279.451 108.07 279.391C108.39 279.331 108.8 279.301 109.3 279.301C109.86 279.301 110.21 279.341 110.35 279.421C110.51 279.501 110.59 279.681 110.59 279.961C110.59 280.161 110.18 280.411 109.36 280.711C108.54 281.011 107.62 281.281 106.6 281.521C105.58 281.761 104.88 281.881 104.5 281.881ZM115.631 281.881C114.811 280.281 114.161 278.401 113.681 276.241C113.221 274.081 112.991 272.211 112.991 270.631C112.991 270.011 113.131 269.611 113.411 269.431C113.571 269.331 113.691 269.281 113.771 269.281C113.911 269.281 114.011 269.391 114.071 269.611C114.151 269.831 114.231 270.231 114.311 270.811L114.461 271.891C114.681 270.811 115.101 269.961 115.721 269.341C116.361 268.701 117.141 268.381 118.061 268.381C119.081 268.381 119.841 268.581 120.341 268.981C120.841 269.361 121.091 270.001 121.091 270.901C120.091 270.421 119.181 270.181 118.361 270.181C117.581 270.181 116.911 270.391 116.351 270.811C115.791 271.231 115.401 271.851 115.181 272.671C115.001 273.231 114.911 273.761 114.911 274.261C114.911 274.801 114.981 275.311 115.121 275.791C115.281 276.251 115.521 276.821 115.841 277.501C116.141 278.201 116.371 278.801 116.531 279.301C116.711 279.801 116.811 280.341 116.831 280.921C116.831 281.261 116.711 281.511 116.471 281.671C116.231 281.811 115.951 281.881 115.631 281.881ZM127.108 281.881C126.908 281.921 126.778 281.941 126.718 281.941C126.098 281.941 125.668 281.481 125.428 280.561C125.208 279.641 125.098 278.351 125.098 276.691C125.098 276.011 125.118 274.951 125.158 273.511C125.198 272.631 125.218 271.971 125.218 271.531C122.758 271.531 121.528 271.251 121.528 270.691C121.528 270.511 121.548 270.371 121.588 270.271C121.648 270.171 121.768 270.121 121.948 270.121L125.218 269.911C125.198 268.931 125.148 267.861 125.068 266.701C124.988 265.661 124.938 264.701 124.918 263.821C124.918 263.601 125.008 263.451 125.188 263.371C125.368 263.271 125.558 263.221 125.758 263.221C125.998 263.221 126.198 263.351 126.358 263.611C126.518 263.851 126.598 264.101 126.598 264.361L126.808 269.851L129.298 269.971C129.678 269.931 129.998 270.001 130.258 270.181C130.538 270.361 130.688 270.661 130.708 271.081C130.288 271.261 129.828 271.371 129.328 271.411C128.828 271.451 127.988 271.471 126.808 271.471C126.808 273.331 126.898 276.391 127.078 280.651C127.078 281.091 127.078 281.401 127.078 281.581C127.098 281.741 127.108 281.841 127.108 281.881ZM134.366 281.911C133.906 281.911 133.536 281.241 133.256 279.901C132.976 278.541 132.796 277.371 132.716 276.391C132.636 275.411 132.526 273.861 132.386 271.741C132.366 271.401 132.356 270.961 132.356 270.421C132.356 269.741 132.406 269.271 132.506 269.011C132.626 268.751 132.816 268.621 133.076 268.621C133.296 268.621 133.466 268.671 133.586 268.771C133.726 268.851 133.846 268.991 133.946 269.191L133.916 270.391C133.916 271.671 133.976 272.881 134.096 274.021C134.236 275.161 134.446 276.691 134.726 278.611C134.886 279.451 134.996 280.141 135.056 280.681C135.096 280.961 135.046 281.241 134.906 281.521C134.766 281.781 134.586 281.911 134.366 281.911ZM133.616 265.411C133.176 265.411 132.846 265.241 132.626 264.901C132.426 264.561 132.326 264.141 132.326 263.641C132.326 263.421 132.336 263.261 132.356 263.161C132.336 262.841 132.516 262.681 132.896 262.681C133.176 262.681 133.456 262.751 133.736 262.891C134.036 263.011 134.126 263.101 134.006 263.161C134.206 263.681 134.306 264.091 134.306 264.391C134.306 264.651 134.246 264.861 134.126 265.021C134.006 265.161 133.836 265.291 133.616 265.411ZM139.397 281.671C138.957 279.491 138.617 276.911 138.377 273.931C138.157 270.931 138.047 268.031 138.047 265.231C138.047 263.831 138.077 262.591 138.137 261.511C138.137 261.251 138.337 261.121 138.737 261.121C139.057 261.121 139.257 261.201 139.337 261.361C139.437 261.521 139.487 261.771 139.487 262.111C139.487 265.351 139.547 268.121 139.667 270.421C139.787 272.701 139.947 275.161 140.147 277.801C140.267 279.501 140.347 280.651 140.387 281.251C140.407 281.571 140.237 281.731 139.877 281.731C139.757 281.731 139.597 281.711 139.397 281.671ZM146.086 281.821C145.986 281.841 145.876 281.461 145.756 280.681C145.656 279.901 145.516 278.561 145.336 276.661C145.056 273.541 144.736 270.681 144.376 268.081C144.036 265.481 143.606 263.231 143.086 261.331C143.046 261.171 143.106 261.031 143.266 260.911C143.426 260.791 143.646 260.731 143.926 260.731C144.066 260.731 144.176 260.741 144.256 260.761C144.756 262.121 145.106 263.321 145.306 264.361C145.526 265.401 145.726 266.681 145.906 268.201L146.056 269.371C147.256 268.651 148.356 268.291 149.356 268.291C151.176 268.291 152.466 269.121 153.226 270.781C154.006 272.421 154.396 274.761 154.396 277.801C154.396 278.961 154.326 279.941 154.186 280.741C154.046 281.521 153.876 281.911 153.676 281.911C153.416 281.911 153.126 281.721 152.806 281.341V280.351L152.836 277.081C152.836 276.461 152.816 275.691 152.776 274.771C152.716 273.211 152.396 272.031 151.816 271.231C151.256 270.431 150.286 270.031 148.906 270.031C147.986 270.031 147.126 270.371 146.326 271.051C146.326 271.811 146.356 272.591 146.416 273.391C146.496 274.191 146.586 274.971 146.686 275.731C146.826 276.791 146.926 277.731 146.986 278.551C147.066 279.351 147.106 280.241 147.106 281.221C146.986 281.461 146.846 281.621 146.686 281.701C146.546 281.781 146.346 281.821 146.086 281.821ZM164.104 281.881C162.824 281.881 161.644 281.631 160.564 281.131C159.484 280.631 158.624 279.921 157.984 279.001C157.344 278.081 157.024 277.021 157.024 275.821C157.024 274.481 157.274 273.231 157.774 272.071C158.274 270.891 159.004 269.951 159.964 269.251C160.944 268.531 162.084 268.171 163.384 268.171C164.744 268.171 165.774 268.611 166.474 269.491C167.174 270.351 167.504 271.441 167.464 272.761C167.464 273.941 166.994 274.841 166.054 275.461C165.134 276.081 163.954 276.391 162.514 276.391C162.294 276.391 161.964 276.371 161.524 276.331C160.804 276.251 160.294 276.141 159.994 276.001C159.694 275.861 159.544 275.581 159.544 275.161C159.544 275.021 159.584 274.921 159.664 274.861C159.744 274.781 159.904 274.741 160.144 274.741C160.404 274.741 160.864 274.801 161.524 274.921C162.164 275.041 162.734 275.101 163.234 275.101C165.074 275.101 165.994 274.301 165.994 272.701C165.994 271.741 165.814 270.981 165.454 270.421C165.114 269.861 164.504 269.581 163.624 269.581C162.664 269.581 161.804 269.841 161.044 270.361C160.284 270.861 159.694 271.521 159.274 272.341C158.874 273.161 158.674 274.031 158.674 274.951C158.674 276.531 159.114 277.831 159.994 278.851C160.874 279.851 162.234 280.351 164.074 280.351C164.294 280.351 164.664 280.331 165.184 280.291C165.404 280.271 165.674 280.211 165.994 280.111C166.314 280.011 166.544 279.941 166.684 279.901C167.544 279.601 168.174 279.451 168.574 279.451C168.874 279.451 169.104 279.531 169.264 279.691C168.764 280.451 168.014 281.011 167.014 281.371C166.034 281.711 165.064 281.881 164.104 281.881Z" fill="#33A1C4"/>
</g>
<g filter="url(#filter5_d_204_3)">
<path d="M208 34H528V117H374.621" stroke="#737373" stroke-width="5" stroke-linejoin="round"/>
</g>
<g filter="url(#filter6_d_204_3)">
<path d="M441 240V280H206" stroke="#737373" stroke-width="5" stroke-linejoin="round"/>
</g>
<path d="M223.5 265L206 279.5L223.5 295" stroke="#33A1C4" stroke-width="6"/>
<path d="M311 217L328.5 202.5L311 187" stroke="#33A1C4" stroke-width="6"/>
<path d="M390.5 102L373 116.5L390.5 132" stroke="#33A1C4" stroke-width="6"/>
<defs>
<filter id="filter0_d_204_3" x="0" y="0" width="197" height="76" filterUnits="userSpaceOnUse" color-interpolation-filters="sRGB">
<feFlood flood-opacity="0" result="BackgroundImageFix"/>
<feColorMatrix in="SourceAlpha" type="matrix" values="0 0 0 0 0 0 0 0 0 0 0 0 0 0 0 0 0 0 127 0" result="hardAlpha"/>
<feOffset dy="4"/>
<feGaussianBlur stdDeviation="2"/>
<feComposite in2="hardAlpha" operator="out"/>
<feColorMatrix type="matrix" values="0 0 0 0 0 0 0 0 0 0 0 0 0 0 0 0 0 0 0.25 0"/>
<feBlend mode="normal" in2="BackgroundImageFix" result="effect1_dropShadow_204_3"/>
<feBlend mode="normal" in="SourceGraphic" in2="effect1_dropShadow_204_3" result="shape"/>
</filter>
<filter id="filter1_d_204_3" x="168" y="82" width="197" height="76" filterUnits="userSpaceOnUse" color-interpolation-filters="sRGB">
<feFlood flood-opacity="0" result="BackgroundImageFix"/>
<feColorMatrix in="SourceAlpha" type="matrix" values="0 0 0 0 0 0 0 0 0 0 0 0 0 0 0 0 0 0 127 0" result="hardAlpha"/>
<feOffset dy="4"/>
<feGaussianBlur stdDeviation="2"/>
<feComposite in2="hardAlpha" operator="out"/>
<feColorMatrix type="matrix" values="0 0 0 0 0 0 0 0 0 0 0 0 0 0 0 0 0 0 0.25 0"/>
<feBlend mode="normal" in2="BackgroundImageFix" result="effect1_dropShadow_204_3"/>
<feBlend mode="normal" in="SourceGraphic" in2="effect1_dropShadow_204_3" result="shape"/>
</filter>
<filter id="filter2_d_204_3" x="335" y="162" width="197" height="76" filterUnits="userSpaceOnUse" color-interpolation-filters="sRGB">
<feFlood flood-opacity="0" result="BackgroundImageFix"/>
<feColorMatrix in="SourceAlpha" type="matrix" values="0 0 0 0 0 0 0 0 0 0 0 0 0 0 0 0 0 0 127 0" result="hardAlpha"/>
<feOffset dy="4"/>
<feGaussianBlur stdDeviation="2"/>
<feComposite in2="hardAlpha" operator="out"/>
<feColorMatrix type="matrix" values="0 0 0 0 0 0 0 0 0 0 0 0 0 0 0 0 0 0 0.25 0"/>
<feBlend mode="normal" in2="BackgroundImageFix" result="effect1_dropShadow_204_3"/>
<feBlend mode="normal" in="SourceGraphic" in2="effect1_dropShadow_204_3" result="shape"/>
</filter>
<filter id="filter3_d_204_3" x="3.5" y="113.5" width="329.5" height="99" filterUnits="userSpaceOnUse" color-interpolation-filters="sRGB">
<feFlood flood-opacity="0" result="BackgroundImageFix"/>
<feColorMatrix in="SourceAlpha" type="matrix" values="0 0 0 0 0 0 0 0 0 0 0 0 0 0 0 0 0 0 127 0" result="hardAlpha"/>
<feOffset dy="4"/>
<feGaussianBlur stdDeviation="2"/>
<feComposite in2="hardAlpha" operator="out"/>
<feColorMatrix type="matrix" values="0 0 0 0 0 0 0 0 0 0 0 0 0 0 0 0 0 0 0.25 0"/>
<feBlend mode="normal" in2="BackgroundImageFix" result="effect1_dropShadow_204_3"/>
<feBlend mode="normal" in="SourceGraphic" in2="effect1_dropShadow_204_3" result="shape"/>
</filter>
<filter id="filter4_d_204_3" x="0" y="240" width="196.875" height="75.9816" filterUnits="userSpaceOnUse" color-interpolation-filters="sRGB">
<feFlood flood-opacity="0" result="BackgroundImageFix"/>
<feColorMatrix in="SourceAlpha" type="matrix" values="0 0 0 0 0 0 0 0 0 0 0 0 0 0 0 0 0 0 127 0" result="hardAlpha"/>
<feOffset dy="4"/>
<feGaussianBlur stdDeviation="2"/>
<feComposite in2="hardAlpha" operator="out"/>
<feColorMatrix type="matrix" values="0 0 0 0 0 0 0 0 0 0 0 0 0 0 0 0 0 0 0.25 0"/>
<feBlend mode="normal" in2="BackgroundImageFix" result="effect1_dropShadow_204_3"/>
<feBlend mode="normal" in="SourceGraphic" in2="effect1_dropShadow_204_3" result="shape"/>
</filter>
<filter id="filter5_d_204_3" x="204" y="31.5" width="330.5" height="96" filterUnits="userSpaceOnUse" color-interpolation-filters="sRGB">
<feFlood flood-opacity="0" result="BackgroundImageFix"/>
<feColorMatrix in="SourceAlpha" type="matrix" values="0 0 0 0 0 0 0 0 0 0 0 0 0 0 0 0 0 0 127 0" result="hardAlpha"/>
<feOffset dy="4"/>
<feGaussianBlur stdDeviation="2"/>
<feComposite in2="hardAlpha" operator="out"/>
<feColorMatrix type="matrix" values="0 0 0 0 0 0 0 0 0 0 0 0 0 0 0 0 0 0 0.25 0"/>
<feBlend mode="normal" in2="BackgroundImageFix" result="effect1_dropShadow_204_3"/>
<feBlend mode="normal" in="SourceGraphic" in2="effect1_dropShadow_204_3" result="shape"/>
</filter>
<filter id="filter6_d_204_3" x="202" y="240" width="245.5" height="50.5" filterUnits="userSpaceOnUse" color-interpolation-filters="sRGB">
<feFlood flood-opacity="0" result="BackgroundImageFix"/>
<feColorMatrix in="SourceAlpha" type="matrix" values="0 0 0 0 0 0 0 0 0 0 0 0 0 0 0 0 0 0 127 0" result="hardAlpha"/>
<feOffset dy="4"/>
<feGaussianBlur stdDeviation="2"/>
<feComposite in2="hardAlpha" operator="out"/>
<feColorMatrix type="matrix" values="0 0 0 0 0 0 0 0 0 0 0 0 0 0 0 0 0 0 0.25 0"/>
<feBlend mode="normal" in2="BackgroundImageFix" result="effect1_dropShadow_204_3"/>
<feBlend mode="normal" in="SourceGraphic" in2="effect1_dropShadow_204_3" result="shape"/>
</filter>
</defs>
</svg>
