<svg width="20" height="22" viewBox="0 0 20 22" fill="none" xmlns="http://www.w3.org/2000/svg">
<path fill-rule="evenodd" clip-rule="evenodd" d="M15.5 1.5C13.567 1.5 12 3.067 12 5C12 5.40464 12.0686 5.79273 12.1945 6.15362L12.2583 6.33653L12.0971 6.444L8.20022 9.04198L7.99808 9.17674L7.85758 8.97853C7.22313 8.08339 6.17969 7.5 5 7.5C3.067 7.5 1.5 9.067 1.5 11C1.5 12.933 3.067 14.5 5 14.5C6.20318 14.5 7.26469 13.8931 7.89502 12.9676L8.03893 12.7563L8.24696 12.9049L12.0769 15.6405L12.2258 15.7469L12.1694 15.921C12.0595 16.2605 12 16.6231 12 17C12 18.933 13.567 20.5 15.5 20.5C17.433 20.5 19 18.933 19 17C19 15.067 17.433 13.5 15.5 13.5C14.2968 13.5 13.2353 14.1069 12.605 15.0324L12.4611 15.2437L12.253 15.0951L8.42312 12.3595L8.27423 12.2531L8.33058 12.079C8.44051 11.7395 8.5 11.3769 8.5 11C8.5 10.6284 8.44217 10.2708 8.33521 9.93539L8.27857 9.75776L8.43266 9.6528L10.4841 8.2555L12.3271 7.00024L12.5272 6.86394L12.6698 7.05959C13.3067 7.93314 14.3371 8.5 15.5 8.5C17.433 8.5 19 6.933 19 5C19 3.067 17.433 1.5 15.5 1.5ZM11.5 5C11.5 2.79086 13.2909 1 15.5 1C17.7091 1 19.5 2.79086 19.5 5C19.5 7.20914 17.7091 9 15.5 9C14.2578 9 13.1478 8.43351 12.4145 7.54566L10.7656 8.66875L8.86439 9.96371C8.95288 10.2945 9 10.6419 9 11C9 11.3653 8.95096 11.7196 8.85898 12.0563L12.3423 14.5444C13.0738 13.6049 14.2162 13 15.5 13C17.7091 13 19.5 14.7909 19.5 17C19.5 19.2091 17.7091 21 15.5 21C13.2909 21 11.5 19.2091 11.5 17C11.5 16.6347 11.549 16.2804 11.641 15.9437L8.15774 13.4556C7.42615 14.3951 6.28375 15 5 15C2.79086 15 1 13.2091 1 11C1 8.79086 2.79086 7 5 7C6.26123 7 7.38607 7.58393 8.11888 8.49528L11.6627 6.1327C11.5568 5.77331 11.5 5.39309 11.5 5Z" fill="#33A1C4"/>
<path d="M12.1945 6.15362L11.7224 6.31836L11.7224 6.31836L12.1945 6.15362ZM12.2583 6.33653L12.5357 6.75256L12.8581 6.53762L12.7304 6.17179L12.2583 6.33653ZM12.0971 6.444L11.8198 6.02797L11.8198 6.02797L12.0971 6.444ZM8.20022 9.04198L8.47758 9.458L8.47758 9.458L8.20022 9.04198ZM7.99808 9.17674L7.59015 9.46587L7.87113 9.8623L8.27543 9.59277L7.99808 9.17674ZM7.85758 8.97853L7.44966 9.26766L7.44966 9.26766L7.85758 8.97853ZM7.89502 12.9676L8.30828 13.249L8.30828 13.249L7.89502 12.9676ZM8.03893 12.7563L8.32955 12.3494L7.91348 12.0522L7.62567 12.4748L8.03893 12.7563ZM8.24696 12.9049L7.95634 13.3118L7.95634 13.3118L8.24696 12.9049ZM12.0769 15.6405L11.7863 16.0474L11.7863 16.0474L12.0769 15.6405ZM12.2258 15.7469L12.7015 15.9009L12.8142 15.5527L12.5164 15.34L12.2258 15.7469ZM12.1694 15.921L11.6937 15.767L11.6937 15.767L12.1694 15.921ZM12.605 15.0324L13.0182 15.3139L13.0182 15.3139L12.605 15.0324ZM12.4611 15.2437L12.1705 15.6506L12.5865 15.9478L12.8743 15.5252L12.4611 15.2437ZM12.253 15.0951L12.5437 14.6882L12.5437 14.6882L12.253 15.0951ZM8.42312 12.3595L8.71374 11.9526L8.71374 11.9526L8.42312 12.3595ZM8.27423 12.2531L7.79854 12.0991L7.68583 12.4473L7.98361 12.66L8.27423 12.2531ZM8.33058 12.079L8.80628 12.233L8.80628 12.233L8.33058 12.079ZM8.33521 9.93539L7.85885 10.0873L7.85885 10.0873L8.33521 9.93539ZM8.27857 9.75776L7.9971 9.34451L7.68891 9.55442L7.8022 9.90968L8.27857 9.75776ZM8.43266 9.6528L8.71413 10.0661L8.71413 10.0661L8.43266 9.6528ZM10.4841 8.2555L10.7656 8.66874L10.7656 8.66874L10.4841 8.2555ZM12.3271 7.00024L12.6085 7.41349L12.6085 7.41349L12.3271 7.00024ZM12.5272 6.86394L12.9312 6.56938L12.6459 6.17809L12.2457 6.45069L12.5272 6.86394ZM12.6698 7.05959L13.0738 6.76503L13.0738 6.76503L12.6698 7.05959ZM12.4145 7.54566L12.8 7.22725L12.5097 6.87583L12.133 7.13242L12.4145 7.54566ZM10.7656 8.66875L10.4841 8.2555L10.4841 8.2555L10.7656 8.66875ZM8.86439 9.96371L8.58292 9.55046L8.28969 9.75019L8.38138 10.0929L8.86439 9.96371ZM8.85898 12.0563L8.37665 11.9246L8.28484 12.2607L8.56836 12.4632L8.85898 12.0563ZM12.3423 14.5444L12.0516 14.9513L12.442 15.2301L12.7368 14.8516L12.3423 14.5444ZM11.641 15.9437L12.1234 16.0754L12.2152 15.7393L11.9316 15.5368L11.641 15.9437ZM8.15774 13.4556L8.44836 13.0487L8.05799 12.7699L7.76325 13.1484L8.15774 13.4556ZM8.11888 8.49528L7.72922 8.8086L8.01576 9.16495L8.39623 8.9113L8.11888 8.49528ZM11.6627 6.1327L11.9401 6.54872L12.2464 6.34449L12.1423 5.99134L11.6627 6.1327ZM12.5 5C12.5 3.34315 13.8431 2 15.5 2V1C13.2909 1 11.5 2.79086 11.5 5H12.5ZM12.6666 5.98888C12.5589 5.68022 12.5 5.34779 12.5 5H11.5C11.5 5.46149 11.5783 5.90523 11.7224 6.31836L12.6666 5.98888ZM12.7304 6.17179L12.6666 5.98888L11.7224 6.31836L11.7863 6.50127L12.7304 6.17179ZM12.3745 6.86002L12.5357 6.75256L11.981 5.92051L11.8198 6.02797L12.3745 6.86002ZM8.47758 9.458L12.3745 6.86002L11.8198 6.02797L7.92287 8.62595L8.47758 9.458ZM8.27543 9.59277L8.47758 9.458L7.92287 8.62595L7.72072 8.76072L8.27543 9.59277ZM7.44966 9.26766L7.59015 9.46587L8.406 8.88761L8.26551 8.6894L7.44966 9.26766ZM5 8C6.01077 8 6.90495 8.49915 7.44966 9.26766L8.26551 8.6894C7.5413 7.66764 6.3486 7 5 7V8ZM2 11C2 9.34315 3.34315 8 5 8V7C2.79086 7 1 8.79086 1 11H2ZM5 14C3.34315 14 2 12.6569 2 11H1C1 13.2091 2.79086 15 5 15V14ZM7.48176 12.6861C6.9406 13.4807 6.03086 14 5 14V15C6.3755 15 7.58878 14.3055 8.30828 13.249L7.48176 12.6861ZM7.62567 12.4748L7.48176 12.6861L8.30828 13.249L8.45219 13.0377L7.62567 12.4748ZM8.53758 12.498L8.32955 12.3494L7.74831 13.1632L7.95634 13.3118L8.53758 12.498ZM12.3675 15.2337L8.53758 12.498L7.95634 13.3118L11.7863 16.0474L12.3675 15.2337ZM12.5164 15.34L12.3675 15.2337L11.7863 16.0474L11.9352 16.1538L12.5164 15.34ZM12.6451 16.075L12.7015 15.9009L11.7501 15.5929L11.6937 15.767L12.6451 16.075ZM12.5 17C12.5 16.676 12.5511 16.3654 12.6451 16.075L11.6937 15.767C11.5679 16.1557 11.5 16.5702 11.5 17H12.5ZM15.5 20C13.8431 20 12.5 18.6569 12.5 17H11.5C11.5 19.2091 13.2909 21 15.5 21V20ZM18.5 17C18.5 18.6569 17.1569 20 15.5 20V21C17.7091 21 19.5 19.2091 19.5 17H18.5ZM15.5 14C17.1569 14 18.5 15.3431 18.5 17H19.5C19.5 14.7909 17.7091 13 15.5 13V14ZM13.0182 15.3139C13.5594 14.5193 14.4691 14 15.5 14V13C14.1245 13 12.9112 13.6945 12.1917 14.751L13.0182 15.3139ZM12.8743 15.5252L13.0182 15.3139L12.1917 14.751L12.0478 14.9622L12.8743 15.5252ZM11.9624 15.502L12.1705 15.6506L12.7517 14.8368L12.5437 14.6882L11.9624 15.502ZM8.1325 12.7663L11.9624 15.502L12.5437 14.6882L8.71374 11.9526L8.1325 12.7663ZM7.98361 12.66L8.1325 12.7663L8.71374 11.9526L8.56485 11.8462L7.98361 12.66ZM7.85489 11.925L7.79854 12.0991L8.74992 12.4071L8.80628 12.233L7.85489 11.925ZM8 11C8 11.324 7.9489 11.6346 7.85489 11.925L8.80628 12.233C8.93211 11.8443 9 11.4298 9 11H8ZM7.85885 10.0873C7.95033 10.3742 8 10.6806 8 11H9C9 10.5762 8.93402 10.1674 8.81158 9.78347L7.85885 10.0873ZM7.8022 9.90968L7.85885 10.0873L8.81158 9.78347L8.75493 9.60584L7.8022 9.90968ZM8.15119 9.23956L7.9971 9.34451L8.56004 10.171L8.71413 10.0661L8.15119 9.23956ZM10.2027 7.84225L8.15119 9.23956L8.71413 10.0661L10.7656 8.66874L10.2027 7.84225ZM12.0456 6.58699L10.2027 7.84225L10.7656 8.66874L12.6085 7.41349L12.0456 6.58699ZM12.2457 6.45069L12.0456 6.58699L12.6085 7.41349L12.8087 7.27719L12.2457 6.45069ZM13.0738 6.76503L12.9312 6.56938L12.1232 7.1585L12.2658 7.35415L13.0738 6.76503ZM15.5 8C14.5036 8 13.6206 7.51501 13.0738 6.76503L12.2658 7.35414C12.9928 8.35128 14.1707 9 15.5 9V8ZM18.5 5C18.5 6.65685 17.1569 8 15.5 8V9C17.7091 9 19.5 7.20914 19.5 5H18.5ZM15.5 2C17.1569 2 18.5 3.34315 18.5 5H19.5C19.5 2.79086 17.7091 1 15.5 1V2ZM15.5 0.5C13.0147 0.5 11 2.51472 11 5H12C12 3.067 13.567 1.5 15.5 1.5V0.5ZM20 5C20 2.51472 17.9853 0.5 15.5 0.5V1.5C17.433 1.5 19 3.067 19 5H20ZM15.5 9.5C17.9853 9.5 20 7.48528 20 5H19C19 6.933 17.433 8.5 15.5 8.5V9.5ZM12.029 7.86408C12.8532 8.86195 14.1023 9.5 15.5 9.5V8.5C14.4132 8.5 13.4424 8.00507 12.8 7.22725L12.029 7.86408ZM11.0471 9.08199L12.696 7.95891L12.133 7.13242L10.4841 8.2555L11.0471 9.08199ZM9.14587 10.377L11.0471 9.08199L10.4841 8.2555L8.58292 9.55046L9.14587 10.377ZM9.5 11C9.5 10.5979 9.44707 10.207 9.34741 9.83448L8.38138 10.0929C8.45869 10.3819 8.5 10.6859 8.5 11H9.5ZM9.34131 12.1881C9.4449 11.8088 9.5 11.4103 9.5 11H8.5C8.5 11.3204 8.45701 11.6304 8.37665 11.9246L9.34131 12.1881ZM12.6329 14.1375L9.1496 11.6495L8.56836 12.4632L12.0516 14.9513L12.6329 14.1375ZM15.5 12.5C14.0555 12.5 12.77 13.1814 11.9478 14.2372L12.7368 14.8516C13.3777 14.0285 14.377 13.5 15.5 13.5V12.5ZM20 17C20 14.5147 17.9853 12.5 15.5 12.5V13.5C17.433 13.5 19 15.067 19 17H20ZM15.5 21.5C17.9853 21.5 20 19.4853 20 17H19C19 18.933 17.433 20.5 15.5 20.5V21.5ZM11 17C11 19.4853 13.0147 21.5 15.5 21.5V20.5C13.567 20.5 12 18.933 12 17H11ZM11.1587 15.8119C11.0551 16.1912 11 16.5897 11 17H12C12 16.6796 12.043 16.3696 12.1234 16.0754L11.1587 15.8119ZM7.86712 13.8625L11.3504 16.3505L11.9316 15.5368L8.44836 13.0487L7.86712 13.8625ZM5 15.5C6.44451 15.5 7.73002 14.8186 8.55223 13.7628L7.76325 13.1484C7.12229 13.9715 6.123 14.5 5 14.5V15.5ZM0.5 11C0.5 13.4853 2.51472 15.5 5 15.5V14.5C3.067 14.5 1.5 12.933 1.5 11H0.5ZM5 6.5C2.51472 6.5 0.5 8.51472 0.5 11H1.5C1.5 9.067 3.067 7.5 5 7.5V6.5ZM8.50853 8.18196C7.68493 7.15769 6.41913 6.5 5 6.5V7.5C6.10334 7.5 7.08721 8.01017 7.72922 8.8086L8.50853 8.18196ZM11.3854 5.71667L7.84153 8.07926L8.39623 8.9113L11.9401 6.54872L11.3854 5.71667ZM11 5C11 5.44145 11.0638 5.86925 11.1831 6.27405L12.1423 5.99134C12.0498 5.67736 12 5.34473 12 5H11Z" fill="#33A1C4"/>
</svg>
