<svg width="18" height="20" viewBox="0 0 18 20" fill="none" xmlns="http://www.w3.org/2000/svg">
<path d="M14.9132 7.5H3.0868C2.50176 7.5 2.04167 8.00003 2.09025 8.58305L2.92359 18.583C2.96678 19.1013 3.40004 19.5 3.92013 19.5H14.0799C14.6 19.5 15.0332 19.1013 15.0764 18.583L15.9097 8.58305C15.9583 8.00003 15.4982 7.5 14.9132 7.5Z" fill="#33A1C4"/>
<path d="M16.5 5.5H1.5C0.947715 5.5 0.5 5.05228 0.5 4.5V4C0.5 3.44772 0.947715 3 1.5 3H6L6.33922 1.30388C6.43271 0.83646 6.84312 0.5 7.3198 0.5H10.6802C11.1569 0.5 11.5673 0.83646 11.6608 1.30388L12 3H16.5C17.0523 3 17.5 3.44772 17.5 4V4.5C17.5 5.05228 17.0523 5.5 16.5 5.5Z" fill="#33A1C4"/>
<path d="M6 3H1.5C0.947715 3 0.5 3.44772 0.5 4V4.5C0.5 5.05228 0.947715 5.5 1.5 5.5H16.5C17.0523 5.5 17.5 5.05228 17.5 4.5V4C17.5 3.44772 17.0523 3 16.5 3H12M6 3L6.33922 1.30388C6.43271 0.83646 6.84312 0.5 7.3198 0.5H10.6802C11.1569 0.5 11.5673 0.83646 11.6608 1.30388L12 3M6 3H12M3.92013 19.5H14.0799C14.6 19.5 15.0332 19.1013 15.0764 18.583L15.9097 8.58305C15.9583 8.00003 15.4982 7.5 14.9132 7.5H3.0868C2.50176 7.5 2.04167 8.00003 2.09025 8.58305L2.92359 18.583C2.96678 19.1013 3.40004 19.5 3.92013 19.5Z" stroke="#33A1C4"/>
<path d="M5.5 9V17.5M9 9V17.5M12.5 9V17.5" stroke="white" stroke-linecap="round"/>
</svg>
